# This file uses centimeters as units for non-parametric coordinates.

mtllib island.mtl
g default
v -4.020182 -5.462767 -2.145633
v -2.631439 -5.462767 -2.205690
v -4.432010 -2.755559 -1.958345
v -3.054602 -2.755559 -1.999667
v -4.283299 -2.755558 -3.143502
v -3.055552 -2.755559 -3.186650
v -4.020282 -5.462767 -3.506766
v -2.630691 -5.462767 -3.569211
v -4.579601 -2.436163 -2.474325
v -2.655754 -3.953913 -3.672990
v -3.325317 -6.016892 -3.767748
v -4.477386 -3.953913 -3.596821
v -2.384689 -6.016892 -2.889522
v -4.265945 -6.016892 -2.807281
v -3.325317 -6.016892 -1.929055
v -2.653612 -3.956645 -1.900503
v -3.724980 -2.464587 -1.744715
v -4.502020 -3.956928 -1.828588
v -2.893756 -2.436163 -2.523768
v -3.632004 -2.449930 -3.260461
v -3.514447 -3.974306 -1.585349
v -3.756966 -2.110490 -2.425804
v -3.513741 -3.968320 -3.928527
v -3.325317 -6.729336 -2.829051
v -2.439771 -3.969439 -2.804476
v -4.832827 -3.968081 -2.705844
v -1.770967 -2.089851 1.785131
v 1.770967 -2.089851 1.785131
v -1.770967 -2.089851 -1.785130
v 1.770967 -2.089851 -1.785131
v 2.875994 0.000000 -3.239856
v 0.000000 -3.031469 -2.363893
v -2.875994 0.000000 -3.239856
v 2.363893 -3.031469 0.000000
v -2.363893 -3.031469 0.000000
v 0.000000 -3.031469 2.363893
v 2.875994 0.000000 3.239856
v -2.875994 0.000000 3.239856
v 0.000000 0.000000 4.293341
v 0.000000 0.000000 -4.293341
v 0.000000 -6.047298 0.000000
v 3.859616 0.000000 0.000000
v -3.859616 0.000000 0.000000
v 0.000000 2.451443 4.071149
v 3.680191 2.451437 3.015667
v 4.968263 2.451443 0.000000
v 3.680191 2.451437 -3.015667
v 0.000000 2.451443 -4.071149
v -3.680191 2.451437 -3.015667
v -4.968263 2.451443 0.000000
v -3.680191 2.451437 3.015666
v 5.178978 -3.045883 -2.178880
v 5.958397 -3.045883 -2.212586
v 4.947843 -1.526488 -2.073766
v 5.720901 -1.526488 -2.096958
v 5.031306 -1.526487 -2.738925
v 5.720367 -1.526488 -2.763141
v 5.178922 -3.045883 -2.942803
v 5.958817 -3.045883 -2.977851
v 4.865009 -1.347230 -2.363356
v 5.944750 -2.199053 -3.036096
v 5.568964 -3.356880 -3.089277
v 4.922376 -2.199053 -2.993346
v 6.096883 -3.356880 -2.596381
v 5.041045 -3.356880 -2.550224
v 5.568964 -3.356880 -2.057328
v 5.945953 -2.200586 -2.041303
v 5.344657 -1.363182 -1.953869
v 4.908551 -2.200745 -2.000941
v 5.811174 -1.347230 -2.391105
v 5.396839 -1.354956 -2.804567
v 5.462817 -2.210498 -1.864426
v 5.326705 -1.164448 -2.336123
v 5.463213 -2.207139 -3.179513
v 5.568964 -3.756733 -2.562442
v 6.065969 -2.207767 -2.548650
v 4.722888 -2.207004 -2.493293
v 2.338656 0.954019 6.863020
v 3.215934 0.532972 6.820939
v 2.899287 2.789041 6.994252
v 3.769405 2.371431 6.965298
v 2.993229 2.743955 6.163817
v 3.768805 2.371719 6.133584
v 2.338593 0.954049 5.909279
v 3.216407 0.532745 5.865524
v 2.902889 3.035553 6.632707
v 3.658037 1.493498 5.792807
v 2.609604 0.393301 5.726410
v 2.507299 2.045790 5.846178
v 3.203805 0.108117 6.341780
v 2.015402 0.678486 6.399405
v 2.609604 0.393301 7.014776
v 3.658562 1.491123 7.034782
v 3.434141 2.758490 7.143942
v 2.490824 2.051354 7.085173
v 3.967849 2.524429 6.598063
v 3.497318 2.739559 6.081864
v 3.109412 1.740959 7.255609
v 3.521292 2.991873 6.666706
v 3.111672 1.744526 5.613753
v 2.393601 -0.056755 6.384152
v 3.789767 1.418207 6.401371
v 2.278469 2.144605 6.470482
vt 0.670367 0.524290
vt 0.585271 0.574672
vt 0.602908 0.427443
vt 0.642659 0.357428
vt 0.533625 0.570092
vt 0.539810 0.464094
vt 0.521742 0.381524
vt 0.539724 0.328370
vt 0.553023 0.280569
vt 0.475159 0.293755
vt 0.479671 0.227012
vt 0.478313 0.378067
vt 0.426094 0.390811
vt 0.403006 0.339969
vt 0.372917 0.302712
vt 0.337797 0.455353
vt 0.290742 0.396282
vt 0.409091 0.474847
vt 0.416730 0.555609
vt 0.375264 0.595557
vt 0.287000 0.557283
vt 0.486703 0.699342
vt 0.243161 0.614207
vt 0.474977 0.600724
vt 0.716694 0.590069
vt 0.477453 0.480478
vt 0.222515 0.312971
vt 0.721700 0.294586
vt -0.987689 0.320520
vt -0.882243 0.382591
vt -1.018582 0.718102
vt -1.181336 0.682884
vt -0.833041 0.538231
vt -0.841918 0.738697
vt -0.844260 0.993992
vt -1.083037 0.993992
vt -1.264966 0.993992
vt -0.300783 0.993992
vt -0.431198 0.993992
vt -0.465639 0.733197
vt -0.360822 0.721731
vt -0.583802 0.993992
vt -0.587197 0.737602
vt -0.600047 0.536069
vt -0.535502 0.382564
vt -0.430064 0.320478
vt -0.708883 0.231035
vt -0.954961 0.201092
vt -0.708860 0.470736
vt -0.708851 0.735423
vt -0.708843 0.993992
vt -1.339339 0.658435
vt -1.451378 0.993992
vt 0.670367 0.524290
vt 0.585271 0.574672
vt 0.602908 0.427443
vt 0.642659 0.357428
vt 0.533625 0.570092
vt 0.539810 0.464094
vt 0.521742 0.381524
vt 0.539724 0.328370
vt 0.553023 0.280569
vt 0.475159 0.293755
vt 0.479671 0.227012
vt 0.478313 0.378067
vt 0.426094 0.390811
vt 0.403006 0.339969
vt 0.372917 0.302712
vt 0.337797 0.455353
vt 0.290742 0.396282
vt 0.409091 0.474847
vt 0.416730 0.555609
vt 0.375264 0.595557
vt 0.287000 0.557283
vt 0.486703 0.699342
vt 0.243161 0.614207
vt 0.474977 0.600724
vt 0.716694 0.590069
vt 0.477453 0.480478
vt 0.222515 0.312971
vt 0.721700 0.294586
vt 0.670367 0.524290
vt 0.585271 0.574672
vt 0.602908 0.427443
vt 0.642659 0.357428
vt 0.533625 0.570092
vt 0.539810 0.464094
vt 0.521742 0.381524
vt 0.539724 0.328370
vt 0.553023 0.280569
vt 0.475159 0.293755
vt 0.479671 0.227012
vt 0.478313 0.378067
vt 0.426094 0.390811
vt 0.403006 0.339969
vt 0.372917 0.302712
vt 0.337797 0.455353
vt 0.290742 0.396282
vt 0.409091 0.474847
vt 0.416730 0.555609
vt 0.375264 0.595557
vt 0.287000 0.557283
vt 0.486703 0.699342
vt 0.243161 0.614207
vt 0.474977 0.600724
vt 0.716694 0.590069
vt 0.477453 0.480478
vt 0.222515 0.312971
vt 0.721700 0.294586
vt -0.103672 0.993992
vt -0.144928 0.699438
vt -0.462810 0.201055
vn -0.614447 -0.352172 0.705996
vn 0.049929 -0.490429 0.870049
vn 0.036495 -0.058718 0.997607
vn -0.658138 -0.120754 0.743151
vn 0.734797 -0.201102 0.647790
vn 0.726910 0.047047 0.685120
vn 0.659182 0.360166 0.660121
vn 0.006802 0.431308 0.902179
vn -0.642573 0.251608 0.723736
vn -0.027330 0.999305 0.025360
vn -0.845670 0.532823 -0.030694
vn 0.797981 0.602290 0.021743
vn 0.609165 0.520938 -0.597948
vn -0.026636 0.648789 -0.760502
vn -0.600061 0.445775 -0.664238
vn -0.045724 0.119090 -0.991830
vn -0.687380 0.025121 -0.725863
vn 0.688513 0.166775 -0.705788
vn 0.701751 -0.158916 -0.694472
vn -0.017977 -0.470644 -0.882140
vn -0.650734 -0.291377 -0.701174
vn 0.000214 -0.999977 0.006796
vn -0.841272 -0.540479 -0.012005
vn 0.898501 -0.438692 -0.015631
vn 0.989465 0.144366 -0.010847
vn -0.994437 -0.098071 -0.038444
vn -0.611221 -0.550299 0.568841
vn -0.000000 -0.641789 0.766881
vn -0.000000 -0.266327 0.963883
vn -0.627968 -0.327762 0.705853
vn 0.611221 -0.550299 0.568841
vn 0.627968 -0.327762 0.705853
vn 0.732039 -0.204561 0.649825
vn -0.000000 0.038253 0.999268
vn -0.732039 -0.204561 0.649825
vn -0.732039 -0.204561 -0.649825
vn -0.000000 0.038253 -0.999268
vn -0.000000 -0.266327 -0.963883
vn -0.627968 -0.327762 -0.705853
vn 0.732039 -0.204561 -0.649825
vn 0.627968 -0.327762 -0.705853
vn 0.611221 -0.550299 -0.568841
vn 0.000000 -0.641789 -0.766881
vn -0.611221 -0.550299 -0.568841
vn -0.000000 -1.000000 -0.000000
vn -0.793375 -0.608733 0.000000
vn 0.793375 -0.608733 -0.000000
vn 0.902464 -0.430765 -0.000000
vn 0.936778 -0.349926 0.000000
vn -0.902464 -0.430765 0.000000
vn -0.936778 -0.349925 0.000000
vn -0.614447 -0.352172 0.705996
vn 0.049929 -0.490429 0.870050
vn 0.036494 -0.058718 0.997607
vn -0.658137 -0.120754 0.743151
vn 0.734797 -0.201102 0.647790
vn 0.726910 0.047047 0.685120
vn 0.659182 0.360166 0.660121
vn 0.006801 0.431308 0.902179
vn -0.642573 0.251608 0.723736
vn -0.027330 0.999305 0.025360
vn -0.845670 0.532823 -0.030694
vn 0.797981 0.602290 0.021742
vn 0.609165 0.520938 -0.597948
vn -0.026636 0.648789 -0.760502
vn -0.600061 0.445775 -0.664238
vn -0.045724 0.119090 -0.991830
vn -0.687380 0.025121 -0.725864
vn 0.688513 0.166775 -0.705788
vn 0.701751 -0.158916 -0.694472
vn -0.017977 -0.470644 -0.882140
vn -0.650733 -0.291377 -0.701174
vn 0.000214 -0.999977 0.006796
vn -0.841272 -0.540479 -0.012005
vn 0.898501 -0.438692 -0.015631
vn 0.989465 0.144365 -0.010847
vn -0.994437 -0.098071 -0.038444
vn -0.706332 -0.051632 0.705996
vn -0.167191 -0.463747 0.870049
vn 0.007494 -0.068727 0.997607
vn -0.645588 0.175906 0.743151
vn 0.575435 -0.499242 0.647790
vn 0.675696 -0.272113 0.685120
vn 0.750121 0.039482 0.660121
vn 0.192754 0.385899 0.902180
vn -0.470438 0.504871 0.723735
vn 0.407752 0.912741 0.025360
vn -0.531859 0.846277 -0.030695
vn 0.980019 0.197710 0.021743
vn 0.774593 0.206067 -0.597948
vn 0.256712 0.596436 -0.760502
vn -0.348097 0.661526 -0.664238
vn 0.010307 0.127149 -0.991830
vn -0.608832 0.320071 -0.725863
vn 0.692885 -0.147559 -0.705788
vn 0.563896 -0.446911 -0.694472
vn -0.219850 -0.416527 -0.882140
vn -0.712740 0.018879 -0.701174
vn -0.432490 -0.901613 0.006796
vn -0.992303 -0.123253 -0.012005
vn 0.620218 -0.784274 -0.015631
vn 0.954510 -0.297982 -0.010847
vn -0.938961 0.341870 -0.038445
s 1
g polySurface4
usemtl lambert3SG
f 1/1/1 15/2/2 21/3/3 18/4/4
f 15/2/2 2/5/5 16/6/6 21/3/3
f 21/3/3 16/6/6 4/7/7 17/8/8
f 18/4/4 21/3/3 17/8/8 3/9/9
f 3/9/9 17/8/8 22/10/10 9/11/11
f 17/8/8 4/7/7 19/12/12 22/10/10
f 22/10/10 19/12/12 6/13/13 20/14/14
f 9/11/11 22/10/10 20/14/14 5/15/15
f 5/15/15 20/14/14 23/16/16 12/17/17
f 20/14/14 6/13/13 10/18/18 23/16/16
f 23/16/16 10/18/18 8/19/19 11/20/20
f 12/17/17 23/16/16 11/20/20 7/21/21
f 7/21/21 11/20/20 24/22/22 14/23/23
f 11/20/20 8/19/19 13/24/24 24/22/22
f 24/22/22 13/24/24 2/5/5 15/2/2
f 14/25/23 24/22/22 15/2/2 1/1/1
f 2/5/5 13/24/24 25/26/25 16/6/6
f 13/24/24 8/19/19 10/18/18 25/26/25
f 25/26/25 10/18/18 6/13/13 19/12/12
f 16/6/6 25/26/25 19/12/12 4/7/7
f 7/21/21 14/23/23 26/27/26 12/17/17
f 14/25/23 1/1/1 18/4/4 26/28/26
f 26/28/26 18/4/4 3/9/9 9/11/11
f 12/17/17 26/27/26 9/11/11 5/15/15
s 2
f 27/29/27 36/30/28 39/31/29 38/32/30
f 36/30/28 28/33/31 37/34/32 39/31/29
f 39/31/29 37/34/32 45/35/33 44/36/34
f 38/32/30 39/31/29 44/36/34 51/37/35
f 49/38/36 48/39/37 40/40/38 33/41/39
f 48/39/37 47/42/40 31/43/41 40/40/38
f 40/40/38 31/43/41 30/44/42 32/45/43
f 33/41/39 40/40/38 32/45/43 29/46/44
f 29/46/44 32/45/43 41/47/45 35/112/46
f 32/45/43 30/44/42 34/49/47 41/47/45
f 41/47/45 34/49/47 28/33/31 36/30/28
f 35/48/46 41/47/45 36/30/28 27/29/27
f 28/33/31 34/49/47 42/50/48 37/34/32
f 34/49/47 30/44/42 31/43/41 42/50/48
f 42/50/48 31/43/41 47/42/40 46/51/49
f 37/34/32 42/50/48 46/51/49 45/35/33
f 29/46/44 35/112/46 43/111/50 33/41/39
f 35/48/46 27/29/27 38/32/30 43/52/50
f 43/52/50 38/32/30 51/37/35 50/53/51
f 33/41/39 43/111/50 50/110/51 49/38/36
s 4
f 52/54/52 66/55/53 72/56/54 69/57/55
f 66/55/53 53/58/56 67/59/57 72/56/54
f 72/56/54 67/59/57 55/60/58 68/61/59
f 69/57/55 72/56/54 68/61/59 54/62/60
f 54/62/60 68/61/59 73/63/61 60/64/62
f 68/61/59 55/60/58 70/65/63 73/63/61
f 73/63/61 70/65/63 57/66/64 71/67/65
f 60/64/62 73/63/61 71/67/65 56/68/66
f 56/68/66 71/67/65 74/69/67 63/70/68
f 71/67/65 57/66/64 61/71/69 74/69/67
f 74/69/67 61/71/69 59/72/70 62/73/71
f 63/70/68 74/69/67 62/73/71 58/74/72
f 58/74/72 62/73/71 75/75/73 65/76/74
f 62/73/71 59/72/70 64/77/75 75/75/73
f 75/75/73 64/77/75 53/58/56 66/55/53
f 65/78/74 75/75/73 66/55/53 52/54/52
f 53/58/56 64/77/75 76/79/76 67/59/57
f 64/77/75 59/72/70 61/71/69 76/79/76
f 76/79/76 61/71/69 57/66/64 70/65/63
f 67/59/57 76/79/76 70/65/63 55/60/58
f 58/74/72 65/76/74 77/80/77 63/70/68
f 65/78/74 52/54/52 69/57/55 77/81/77
f 77/81/77 69/57/55 54/62/60 60/64/62
f 63/70/68 77/80/77 60/64/62 56/68/66
s 5
f 78/82/78 92/83/79 98/84/80 95/85/81
f 92/83/79 79/86/82 93/87/83 98/84/80
f 98/84/80 93/87/83 81/88/84 94/89/85
f 95/85/81 98/84/80 94/89/85 80/90/86
f 80/90/86 94/89/85 99/91/87 86/92/88
f 94/89/85 81/88/84 96/93/89 99/91/87
f 99/91/87 96/93/89 83/94/90 97/95/91
f 86/92/88 99/91/87 97/95/91 82/96/92
f 82/96/92 97/95/91 100/97/93 89/98/94
f 97/95/91 83/94/90 87/99/95 100/97/93
f 100/97/93 87/99/95 85/100/96 88/101/97
f 89/98/94 100/97/93 88/101/97 84/102/98
f 84/102/98 88/101/97 101/103/99 91/104/100
f 88/101/97 85/100/96 90/105/101 101/103/99
f 101/103/99 90/105/101 79/86/82 92/83/79
f 91/106/100 101/103/99 92/83/79 78/82/78
f 79/86/82 90/105/101 102/107/102 93/87/83
f 90/105/101 85/100/96 87/99/95 102/107/102
f 102/107/102 87/99/95 83/94/90 96/93/89
f 93/87/83 102/107/102 96/93/89 81/88/84
f 84/102/98 91/104/100 103/108/103 89/98/94
f 91/106/100 78/82/78 95/85/81 103/109/103
f 103/109/103 95/85/81 80/90/86 86/92/88
f 89/98/94 103/108/103 86/92/88 82/96/92
g default
v -3.680191 2.451437 3.015666
v 3.680191 2.451437 3.015667
v -3.680191 2.451437 -3.015667
v 3.680191 2.451437 -3.015667
v -4.968263 2.451443 0.000000
v 0.000000 2.451443 4.071149
v 4.968263 2.451443 0.000000
v 0.000000 2.451443 -4.071149
v 0.000000 2.451451 0.000000
vt 0.089367 0.028701
vt 0.506495 -0.084578
vt 0.500000 0.375000
vt -0.060850 0.367074
vt 0.920255 0.040443
vt 1.060850 0.382926
vt 0.910633 0.721299
vt 0.493505 0.834578
vt 0.079745 0.709557
vn -0.000002 1.000000 0.000002
vn 0.000000 1.000000 0.000002
vn 0.000000 1.000000 -0.000000
vn -0.000002 1.000000 -0.000000
vn 0.000002 1.000000 0.000002
vn 0.000002 1.000000 0.000000
vn 0.000002 1.000000 -0.000002
vn 0.000000 1.000000 -0.000002
vn -0.000002 1.000000 -0.000002
s 1
g polySurface6 pCube5
usemtl lambert2SG
f 104/113/104 109/114/105 112/115/106 108/116/107
f 109/114/105 105/117/108 110/118/109 112/115/106
f 112/115/106 110/118/109 107/119/110 111/120/111
f 108/116/107 112/115/106 111/120/111 106/121/112
